<svg id="visual" viewBox="0 0 900 600" width="900" height="600" xmlns="http://www.w3.org/2000/svg" xmlns:xlink="http://www.w3.org/1999/xlink" version="1.1"><rect x="0" y="0" width="900" height="600" fill="#7751ff"></rect><path d="M0 378L12.5 386.5C25 395 50 412 75 431.3C100 450.7 125 472.3 150 441.5C175 410.7 200 327.3 225 324.7C250 322 275 400 300 405C325 410 350 342 375 298.2C400 254.3 425 234.7 450 242.8C475 251 500 287 525 305.5C550 324 575 325 600 338.7C625 352.3 650 378.7 675 405.7C700 432.7 725 460.3 750 446.3C775 432.3 800 376.7 825 350C850 323.3 875 325.7 887.5 326.8L900 328" fill="none" stroke-linecap="round" stroke-linejoin="miter" stroke="#6c4ee4" stroke-width="40"></path></svg>