<svg id="visual" viewBox="0 0 1500 700" width="1500" height="700" xmlns="http://www.w3.org/2000/svg" xmlns:xlink="http://www.w3.org/1999/xlink" version="1.1"><rect x="0" y="0" width="1500" height="700" fill="#010b13"></rect><path d="M0 498L35.7 501.5C71.3 505 142.7 512 214.2 502C285.7 492 357.3 465 428.8 465.8C500.3 466.7 571.7 495.3 643 501.8C714.3 508.3 785.7 492.7 857 490C928.3 487.3 999.7 497.7 1071.2 492.8C1142.7 488 1214.3 468 1285.8 461.3C1357.3 454.7 1428.7 461.3 1464.3 464.7L1500 468L1500 701L1464.3 701C1428.7 701 1357.3 701 1285.8 701C1214.3 701 1142.7 701 1071.2 701C999.7 701 928.3 701 857 701C785.7 701 714.3 701 643 701C571.7 701 500.3 701 428.8 701C357.3 701 285.7 701 214.2 701C142.7 701 71.3 701 35.7 701L0 701Z" fill="#fa7268"></path><path d="M0 478L35.7 481.3C71.3 484.7 142.7 491.3 214.2 499C285.7 506.7 357.3 515.3 428.8 512C500.3 508.7 571.7 493.3 643 486.7C714.3 480 785.7 482 857 494.8C928.3 507.7 999.7 531.3 1071.2 527C1142.7 522.7 1214.3 490.3 1285.8 480.2C1357.3 470 1428.7 482 1464.3 488L1500 494L1500 701L1464.3 701C1428.7 701 1357.3 701 1285.8 701C1214.3 701 1142.7 701 1071.2 701C999.7 701 928.3 701 857 701C785.7 701 714.3 701 643 701C571.7 701 500.3 701 428.8 701C357.3 701 285.7 701 214.2 701C142.7 701 71.3 701 35.7 701L0 701Z" fill="#ef5f67"></path><path d="M0 536L35.7 535.8C71.3 535.7 142.7 535.3 214.2 535.5C285.7 535.7 357.3 536.3 428.8 541.5C500.3 546.7 571.7 556.3 643 561.2C714.3 566 785.7 566 857 557.7C928.3 549.3 999.7 532.7 1071.2 528.3C1142.7 524 1214.3 532 1285.8 539.7C1357.3 547.3 1428.7 554.7 1464.3 558.3L1500 562L1500 701L1464.3 701C1428.7 701 1357.3 701 1285.8 701C1214.3 701 1142.7 701 1071.2 701C999.7 701 928.3 701 857 701C785.7 701 714.3 701 643 701C571.7 701 500.3 701 428.8 701C357.3 701 285.7 701 214.2 701C142.7 701 71.3 701 35.7 701L0 701Z" fill="#e34c67"></path><path d="M0 625L35.7 614.7C71.3 604.3 142.7 583.7 214.2 577.3C285.7 571 357.3 579 428.8 584.8C500.3 590.7 571.7 594.3 643 600.7C714.3 607 785.7 616 857 616.3C928.3 616.7 999.7 608.3 1071.2 606.2C1142.7 604 1214.3 608 1285.8 602.8C1357.3 597.7 1428.7 583.3 1464.3 576.2L1500 569L1500 701L1464.3 701C1428.7 701 1357.3 701 1285.8 701C1214.3 701 1142.7 701 1071.2 701C999.7 701 928.3 701 857 701C785.7 701 714.3 701 643 701C571.7 701 500.3 701 428.8 701C357.3 701 285.7 701 214.2 701C142.7 701 71.3 701 35.7 701L0 701Z" fill="#d53867"></path><path d="M0 628L35.7 633.3C71.3 638.7 142.7 649.3 214.2 652.7C285.7 656 357.3 652 428.8 644.2C500.3 636.3 571.7 624.7 643 627C714.3 629.3 785.7 645.7 857 652.3C928.3 659 999.7 656 1071.2 654C1142.7 652 1214.3 651 1285.8 647.8C1357.3 644.7 1428.7 639.3 1464.3 636.7L1500 634L1500 701L1464.3 701C1428.7 701 1357.3 701 1285.8 701C1214.3 701 1142.7 701 1071.2 701C999.7 701 928.3 701 857 701C785.7 701 714.3 701 643 701C571.7 701 500.3 701 428.8 701C357.3 701 285.7 701 214.2 701C142.7 701 71.3 701 35.7 701L0 701Z" fill="#c62368"></path></svg>