<svg id="visual" viewBox="0 0 900 600" width="900" height="600" xmlns="http://www.w3.org/2000/svg" xmlns:xlink="http://www.w3.org/1999/xlink" version="1.1"><rect x="0" y="0" width="900" height="600" fill="#cb2269"></rect><g transform="translate(493.5291942658589 252.46933054343722)"><path d="M65.7 -120.7C86.8 -101.7 106.6 -87.3 125 -68C143.3 -48.7 160.1 -24.3 144.5 -9C128.8 6.3 80.7 12.5 72.2 49C63.8 85.5 95.2 152.3 89.7 199.2C84.3 246.1 42.2 273 17.5 242.7C-7.2 212.4 -14.3 124.8 -49.4 95.1C-84.5 65.3 -147.5 93.4 -185 87.2C-222.6 81 -234.8 40.5 -237.3 -1.4C-239.7 -43.3 -232.4 -86.7 -200.6 -102.8C-168.8 -119 -112.4 -108 -74.9 -117.5C-37.3 -127 -18.7 -157 1.8 -160.2C22.3 -163.3 44.7 -139.7 65.7 -120.7" fill="#ee8a35"></path></g></svg>