<svg id="visual" viewBox="0 0 900 600" width="900" height="600" xmlns="http://www.w3.org/2000/svg" xmlns:xlink="http://www.w3.org/1999/xlink" version="1.1"><rect x="0" y="0" width="900" height="600" fill="#ebe8e7"></rect><defs><linearGradient id="grad1_0" x1="33.3%" y1="0%" x2="100%" y2="100%"><stop offset="20%" stop-color="#e97838" stop-opacity="1"></stop><stop offset="80%" stop-color="#e97838" stop-opacity="1"></stop></linearGradient></defs><defs><linearGradient id="grad1_1" x1="33.3%" y1="0%" x2="100%" y2="100%"><stop offset="20%" stop-color="#e97838" stop-opacity="1"></stop><stop offset="80%" stop-color="#f5af91" stop-opacity="1"></stop></linearGradient></defs><defs><linearGradient id="grad1_2" x1="33.3%" y1="0%" x2="100%" y2="100%"><stop offset="20%" stop-color="#ebe8e7" stop-opacity="1"></stop><stop offset="80%" stop-color="#f5af91" stop-opacity="1"></stop></linearGradient></defs><defs><linearGradient id="grad2_0" x1="0%" y1="0%" x2="66.7%" y2="100%"><stop offset="20%" stop-color="#e97838" stop-opacity="1"></stop><stop offset="80%" stop-color="#e97838" stop-opacity="1"></stop></linearGradient></defs><defs><linearGradient id="grad2_1" x1="0%" y1="0%" x2="66.7%" y2="100%"><stop offset="20%" stop-color="#f5af91" stop-opacity="1"></stop><stop offset="80%" stop-color="#e97838" stop-opacity="1"></stop></linearGradient></defs><defs><linearGradient id="grad2_2" x1="0%" y1="0%" x2="66.7%" y2="100%"><stop offset="20%" stop-color="#f5af91" stop-opacity="1"></stop><stop offset="80%" stop-color="#ebe8e7" stop-opacity="1"></stop></linearGradient></defs><g transform="translate(900, 0)"><path d="M0 405.6C-26.3 400.8 -52.5 395.9 -63.9 362.4C-75.3 328.9 -71.7 266.9 -97.8 268.8C-123.9 270.6 -179.8 336.5 -189 327.4C-198.2 318.2 -160.9 234 -185.8 221.4C-210.6 208.8 -297.6 267.7 -310.7 260.7C-323.9 253.8 -263.2 180.9 -261.5 151C-259.9 121.1 -317.3 134 -349.6 127.2C-381.8 120.5 -388.8 94 -393.9 69.5C-399.1 45 -402.3 22.5 -405.6 0L0 0Z" fill="#f3cbbc"></path><path d="M0 270.4C-17.5 267.2 -35 263.9 -42.6 241.6C-50.2 219.3 -47.8 177.9 -65.2 179.2C-82.6 180.4 -119.8 224.3 -126 218.2C-132.2 212.1 -107.3 156 -123.8 147.6C-140.4 139.2 -198.4 178.5 -207.2 173.8C-215.9 169.2 -175.4 120.6 -174.4 100.7C-173.3 80.7 -211.6 89.3 -233 84.8C-254.5 80.3 -259.2 62.6 -262.6 46.3C-266 30 -268.2 15 -270.4 0L0 0Z" fill="#f19366"></path><path d="M0 135.2C-8.8 133.6 -17.5 132 -21.3 120.8C-25.1 109.6 -23.9 89 -32.6 89.6C-41.3 90.2 -59.9 112.2 -63 109.1C-66.1 106.1 -53.6 78 -61.9 73.8C-70.2 69.6 -99.2 89.2 -103.6 86.9C-108 84.6 -87.7 60.3 -87.2 50.3C-86.6 40.4 -105.8 44.7 -116.5 42.4C-127.3 40.2 -129.6 31.3 -131.3 23.2C-133 15 -134.1 7.5 -135.2 0L0 0Z" fill="#e97838"></path></g><g transform="translate(0, 600)"><path d="M0 -405.6C23.6 -392.4 47.2 -379.2 62 -351.6C76.7 -324 82.6 -282 99.2 -272.5C115.8 -263 143.1 -286.1 170.5 -295.3C197.9 -304.6 225.4 -300.1 235.3 -280.4C245.1 -260.7 237.2 -225.7 248.2 -208.3C259.2 -190.8 288.9 -190.8 317 -183C345 -175.2 371.2 -159.5 381.2 -138.7C391.1 -117.9 384.7 -92 386 -68.1C387.4 -44.1 396.5 -22 405.6 0L0 0Z" fill="#f3cbbc"></path><path d="M0 -270.4C15.7 -261.6 31.5 -252.8 41.3 -234.4C51.2 -216 55.1 -188 66.1 -181.7C77.2 -175.4 95.4 -190.7 113.7 -196.9C131.9 -203.1 150.3 -200.1 156.8 -186.9C163.4 -173.8 158.2 -150.5 165.5 -138.8C172.8 -127.2 192.6 -127.2 211.3 -122C230 -116.8 247.5 -106.3 254.1 -92.5C260.7 -78.6 256.5 -61.4 257.4 -45.4C258.3 -29.4 264.3 -14.7 270.4 0L0 0Z" fill="#f19366"></path><path d="M0 -135.2C7.9 -130.8 15.7 -126.4 20.7 -117.2C25.6 -108 27.5 -94 33.1 -90.8C38.6 -87.7 47.7 -95.4 56.8 -98.4C66 -101.5 75.1 -100 78.4 -93.5C81.7 -86.9 79.1 -75.2 82.7 -69.4C86.4 -63.6 96.3 -63.6 105.7 -61C115 -58.4 123.7 -53.2 127.1 -46.2C130.4 -39.3 128.2 -30.7 128.7 -22.7C129.1 -14.7 132.2 -7.3 135.2 0L0 0Z" fill="#e97838"></path></g></svg>